<svg width="34" height="34" viewBox="0 0 34 34" fill="none" xmlns="http://www.w3.org/2000/svg">
<g clip-path="url(#clip0_1_116)">
<g clip-path="url(#clip1_1_116)">
<path d="M33.9952 16.9983C33.9952 18.1728 33.8767 19.3184 33.6508 20.4256C33.5098 21.1178 33.3255 21.7939 33.1028 22.4524C30.8308 29.1659 24.4794 33.9952 16.9968 33.9952C15.1061 33.9952 13.5343 33.718 11.9417 33.2293C13.0665 31.5725 13.7683 29.8517 14.2361 28.0251L15.1061 24.4969C16.1684 25.8364 17.6986 26.5799 19.4403 26.5799C23.8385 26.5799 27.9179 22.2458 27.9179 16.4664C27.9179 10.687 23.7327 6.0773 17.0609 6.0773C10.3891 6.0773 6.18314 10.5813 6.18314 16.2325C6.18314 19.5043 7.79822 21.9061 9.49822 21.9061C10.0494 21.9061 10.4115 21.7987 10.7512 21.2251C9.70972 20.1211 9.17937 18.5061 9.17937 16.7644C9.17937 12.4511 12.1964 9.34913 16.9552 9.34913C21.2252 9.34913 24.1157 12.1739 24.1157 16.5946C24.1157 20.5666 22.0119 23.6269 19.0589 23.6269C17.4006 23.6269 16.106 22.6704 16.106 20.9703C16.106 20.5874 16.1684 20.142 16.3175 19.6741L17.0609 17.2307C17.274 16.5513 17.3798 15.9569 17.3798 15.4249C17.3798 13.7473 16.4665 12.8757 15.2135 12.8757C13.4077 12.8757 12.2589 14.5757 12.2589 16.9551C12.2589 17.9741 12.472 18.9948 12.7476 19.8872L11.0492 27.2176C10.623 29.0025 10.4756 30.8499 10.6871 32.7838C7.03875 31.3226 4.03771 28.6532 2.15344 25.2868C2.10217 25.1955 2.0525 25.1042 2.00283 25.0113C1.80415 24.6443 1.61989 24.2678 1.45165 23.8849C1.40999 23.7887 1.36833 23.6926 1.32667 23.5949C1.24336 23.4026 1.16645 23.2087 1.09274 23.0116C1.09435 23.01 1.09274 23.01 1.09274 23.0084C1.05589 22.9091 1.01904 22.8113 0.98379 22.712C0.94854 22.6127 0.914893 22.5133 0.881245 22.414C0.847598 22.313 0.81395 22.2121 0.781905 22.1112C0.751462 22.0102 0.719417 21.9093 0.690576 21.8067C0.663337 21.7154 0.636099 21.6225 0.610463 21.5295C0.604054 21.5039 0.596042 21.4767 0.589633 21.4494C0.565599 21.3645 0.543168 21.278 0.520736 21.1915C0.4951 21.0889 0.469463 20.9848 0.445429 20.8806C0.431009 20.8181 0.416589 20.7556 0.403771 20.6932C0.386146 20.6259 0.371725 20.5586 0.358907 20.4913C0.349294 20.4448 0.33968 20.3983 0.330066 20.3503C0.315646 20.2846 0.302828 20.2189 0.293214 20.1532C0.278794 20.0811 0.265976 20.009 0.253158 19.9353C0.233931 19.8295 0.216306 19.7222 0.200283 19.6164C0.18426 19.5091 0.168238 19.4017 0.153817 19.2944C0.139397 19.1934 0.126579 19.0925 0.115363 18.9899C0.104147 18.8938 0.0945336 18.7977 0.08492 18.7015C0.0753064 18.6246 0.0688974 18.5477 0.0640906 18.4708C0.0528747 18.3522 0.0432611 18.2337 0.0368521 18.1135C0.0320453 18.0574 0.0288408 18.0014 0.0272385 17.9453C0.0224317 17.886 0.0192272 17.8267 0.0176249 17.7674C0.0144204 17.7081 0.0112159 17.6473 0.0112159 17.588C0.00801132 17.5095 0.00480679 17.4309 0.00320453 17.3524C0.00160226 17.2339 0 17.1169 0 16.9983C0 16.4119 0.030443 15.8319 0.0881245 15.2599C0.961359 6.69417 8.20039 0.00792457 16.9968 0.00792457C25.7933 0.00792457 33.0339 6.69417 33.9071 15.2599C33.9648 15.8319 33.9952 16.4119 33.9952 16.9983Z" fill="#F5FFFA"/>
<path d="M33.9952 16.9984C33.9952 18.1729 33.8767 19.3185 33.6508 20.4257C33.5082 21.1178 33.3255 21.794 33.1028 22.4525C30.8308 29.166 24.4794 33.9952 16.9968 33.9952C15.1061 33.9952 13.5343 33.7181 11.9417 33.2294C13.0665 31.5726 13.7683 29.8518 14.2361 28.0252L15.1061 24.497C16.1684 25.8365 17.6986 26.58 19.4403 26.58C23.8385 26.58 27.9179 22.2458 27.9179 16.4665C27.9179 10.6871 23.7327 6.07739 17.0609 6.07739C10.3891 6.07739 6.18314 10.5814 6.18314 16.2325C6.18314 19.5044 7.79822 21.9062 9.49822 21.9062C10.0494 21.9062 10.4115 21.7988 10.7512 21.2252C9.70972 20.1212 9.17937 18.5062 9.17937 16.7645C9.17937 12.4512 12.1964 9.34921 16.9552 9.34921C21.2252 9.34921 24.1157 12.174 24.1157 16.5947C24.1157 20.5667 22.0119 23.627 19.0589 23.627C17.4006 23.627 16.106 22.6704 16.106 20.9704C16.106 20.5875 16.1684 20.1421 16.3175 19.6742L17.0609 17.2308C17.274 16.5514 17.3798 15.9569 17.3798 15.425C17.3798 13.7474 16.4665 12.8758 15.2135 12.8758C13.4077 12.8758 12.2589 14.5758 12.2589 16.9552C12.2589 17.9742 12.472 18.9948 12.7476 19.8873L11.0492 27.2177C10.623 29.0026 10.4756 30.85 10.6871 32.7839C7.03875 31.3227 4.03771 28.6533 2.15344 25.2869C2.10217 25.1956 2.0525 25.1043 2.00283 25.0113C1.80575 24.6444 1.62309 24.2679 1.45165 23.885C1.40999 23.7888 1.36833 23.6927 1.32667 23.5949C1.24656 23.4027 1.16805 23.2072 1.09274 23.0117C1.09435 23.0101 1.09274 23.0101 1.09274 23.0085C1.05589 22.9092 1.01904 22.8114 0.98379 22.7121C0.94854 22.6128 0.914893 22.5134 0.881245 22.4141C0.847598 22.3131 0.81395 22.2122 0.781905 22.1112C0.751462 22.0103 0.719417 21.9094 0.690576 21.8068C0.663337 21.7155 0.636099 21.6226 0.610463 21.5296C0.604054 21.504 0.596042 21.4767 0.589633 21.4495C0.565599 21.3646 0.543168 21.2781 0.520736 21.1915C0.4951 21.089 0.469463 20.9849 0.445429 20.8807C0.431009 20.8182 0.416589 20.7557 0.403771 20.6932C0.386146 20.6259 0.371725 20.5587 0.358907 20.4914C0.349294 20.4449 0.33968 20.3984 0.330066 20.3504C0.315646 20.2847 0.302828 20.219 0.293214 20.1533C0.278794 20.0812 0.265976 20.0091 0.253158 19.9354C0.233931 19.8296 0.216306 19.7223 0.200283 19.6165C0.18426 19.5092 0.168238 19.4018 0.153817 19.2945C0.139397 19.1935 0.126579 19.0926 0.115363 18.99C0.104147 18.8939 0.0945336 18.7978 0.08492 18.7016C0.0753064 18.6247 0.0688974 18.5478 0.0640906 18.4709C0.0528747 18.3523 0.0432611 18.2338 0.0368521 18.1136C0.0320453 18.0575 0.0288408 18.0014 0.0272385 17.9454C0.0224317 17.8861 0.0192272 17.8268 0.0176249 17.7675C0.0144204 17.7082 0.0112159 17.6473 0.0112159 17.5881C0.00801132 17.5095 0.00480679 17.431 0.00320453 17.3525C0.00160226 17.234 0 17.117 0 16.9984C0 16.412 0.030443 15.832 0.0881245 15.26C0.958154 6.68625 8.19238 0 16.9968 0C25.8013 0 33.0371 6.68625 33.9071 15.26C33.9648 15.832 33.9952 16.412 33.9952 16.9984Z" fill="#F5FFFA"/>
</g>
</g>
<defs>
<clipPath id="clip0_1_116">
<rect width="33.5192" height="33.5192" fill="white" transform="scale(1.01435)"/>
</clipPath>
<clipPath id="clip1_1_116">
<rect width="33.5192" height="33.5192" fill="white" transform="scale(1.01435)"/>
</clipPath>
</defs>
</svg>
