<svg width="37" height="37" viewBox="0 0 37 37" fill="none" xmlns="http://www.w3.org/2000/svg">
<g clip-path="url(#clip0_1_125)">
<g clip-path="url(#clip1_1_125)">
<path d="M37.005 18.5033C37.005 8.28349 28.7215 0 18.5033 0C8.28515 0 0 8.28349 0 18.5033C0 27.1804 5.97348 34.4625 14.0328 36.462V24.158H10.2165V18.5033H14.0328V16.0671C14.0328 9.7698 16.8825 6.85032 23.0652 6.85032C24.2377 6.85032 26.2604 7.07949 27.0874 7.31033V12.4352C26.6507 12.3887 25.8917 12.3654 24.9501 12.3654C21.916 12.3654 20.7436 13.5146 20.7436 16.5022V18.5017H26.7868L25.7489 24.1563H20.7436V36.8688C29.9056 35.7628 37.005 27.9609 37.005 18.5017V18.5033Z" fill="black"/>
<path d="M25.7505 24.1564L26.7884 18.5017H20.7452V16.5023C20.7452 13.5147 21.9177 12.3655 24.9517 12.3655C25.8933 12.3655 26.6523 12.3888 27.089 12.4353V7.3104C26.262 7.08122 24.2393 6.85039 23.0669 6.85039C16.8841 6.85039 14.0344 9.76987 14.0344 16.0672V18.5034H10.2181V24.158H14.0344V36.462C15.4659 36.8174 16.9622 37.0067 18.505 37.0067C19.2639 37.0067 20.0112 36.9602 20.7469 36.8706V24.158H25.7522L25.7505 24.1564Z" fill="white"/>
</g>
</g>
<defs>
<clipPath id="clip0_1_125">
<rect width="36.5659" height="36.5659" fill="white" transform="scale(1.01187)"/>
</clipPath>
<clipPath id="clip1_1_125">
<rect width="36.5659" height="36.5659" fill="white" transform="scale(1.01187)"/>
</clipPath>
</defs>
</svg>
