<svg width="30" height="30" viewBox="0 0 30 30" fill="none" xmlns="http://www.w3.org/2000/svg">
<g clip-path="url(#clip0_1_101)">
<g clip-path="url(#clip1_1_101)">
<path d="M14.9934 2.70217C18.9965 2.70217 19.4698 2.71532 21.0539 2.78764C22.5131 2.85339 23.3085 3.09665 23.8409 3.30703C24.5377 3.57659 25.0372 3.90533 25.5631 4.4313C26.089 4.95726 26.411 5.45694 26.6871 6.15385C26.8909 6.67982 27.1341 7.47535 27.2064 8.94149C27.2787 10.526 27.2919 10.9993 27.2919 15.0033C27.2919 19.0072 27.2787 19.4806 27.2064 21.0651C27.1407 22.5247 26.8975 23.3202 26.6871 23.8527C26.4176 24.5496 26.089 25.0493 25.5631 25.5753C25.0372 26.1012 24.5377 26.4234 23.8409 26.6995C23.3151 26.9034 22.5197 27.1466 21.0539 27.2189C19.4698 27.2913 18.9965 27.3044 14.9934 27.3044C10.9904 27.3044 10.5171 27.2913 8.93295 27.2189C7.47371 27.1532 6.67835 26.9099 6.14592 26.6995C5.44917 26.43 4.94961 26.1012 4.42375 25.5753C3.8979 25.0493 3.57581 24.5496 3.29974 23.8527C3.09597 23.3268 2.85276 22.5312 2.78046 21.0651C2.70815 19.4806 2.695 19.0072 2.695 15.0033C2.695 10.9993 2.70815 10.526 2.78046 8.94149C2.84619 7.48192 3.0894 6.68639 3.29974 6.15385C3.56924 5.45694 3.8979 4.95726 4.42375 4.4313C4.94961 3.90533 5.44917 3.58317 6.14592 3.30703C6.67178 3.10322 7.46713 2.85996 8.93295 2.78764C10.5171 2.71532 10.9904 2.70217 14.9934 2.70217ZM14.9934 0C10.9181 0 10.4119 0.0197239 8.80806 0.0920447C7.21078 0.164366 6.11963 0.420776 5.16652 0.788955C4.18054 1.17028 3.34575 1.6831 2.51096 2.51808C1.68273 3.35306 1.17003 4.18803 0.788782 5.17423C0.420684 6.12755 0.16433 7.21894 0.0920245 8.81657C0.0197195 10.4142 0 10.927 0 14.9967C0 19.073 0.0197195 19.5792 0.0920245 21.1834C0.16433 22.7811 0.420684 23.8725 0.788782 24.8258C1.17003 25.812 1.68273 26.6469 2.51753 27.4819C3.35232 28.3169 4.18712 28.8297 5.17309 29.211C6.1262 29.5792 7.21735 29.8356 8.81464 29.908C10.4119 29.9803 10.9246 30 15 30C19.0754 30 19.5815 29.9803 21.1854 29.908C22.7826 29.8356 23.8738 29.5792 24.8269 29.211C25.8129 28.8297 26.6477 28.3169 27.4825 27.4819C28.3173 26.6469 28.83 25.812 29.2112 24.8258C29.5793 23.8725 29.8357 22.7811 29.908 21.1834C29.9803 19.5858 30 19.073 30 14.9967C30 10.9204 29.9803 10.4142 29.908 8.80999C29.8357 7.21236 29.5793 6.12097 29.2112 5.16765C28.83 4.18146 28.3173 3.34648 27.4825 2.51151C26.6477 1.67653 25.8129 1.16371 24.8269 0.78238C23.8738 0.414201 22.7826 0.157791 21.1854 0.0854701C19.5815 0.0197239 19.0688 0 14.9934 0Z" fill="white"/>
<path d="M14.9935 7.29785C10.7406 7.29785 7.29626 10.743 7.29626 14.9967C7.29626 19.2505 10.7472 22.7022 15 22.7022C19.2529 22.7022 22.7038 19.2571 22.7038 14.9967C22.6972 10.743 19.2463 7.29785 14.9935 7.29785ZM14.9935 20C12.2327 20 9.99784 17.7646 9.99784 15.0033C9.99784 12.242 12.2327 10.0066 14.9935 10.0066C17.7542 10.0066 19.9891 12.242 19.9891 15.0033C19.9957 17.7581 17.7542 20 14.9935 20Z" fill="white"/>
<path d="M24.8006 6.99529C24.8006 7.98806 23.9921 8.79674 22.9995 8.79674C22.007 8.79674 21.1985 7.98806 21.1985 6.99529C21.1985 6.00253 22.007 5.19385 22.9995 5.19385C23.9921 5.19385 24.8006 5.99595 24.8006 6.99529Z" fill="white"/>
</g>
</g>
<defs>
<clipPath id="clip0_1_101">
<rect width="30" height="30" fill="white"/>
</clipPath>
<clipPath id="clip1_1_101">
<rect width="30" height="30" fill="white"/>
</clipPath>
</defs>
</svg>
